<?xml version="1.0" encoding="UTF-8" standalone="no"?>
<!-- Created with Inkscape (http://www.inkscape.org/) -->

<svg
   version="1.1"
   id="svg1"
   width="281.60001"
   height="211.9566"
   viewBox="0 0 281.60001 211.95661"
   xmlns="http://www.w3.org/2000/svg"
   xmlns:svg="http://www.w3.org/2000/svg">
  <defs
     id="defs1" />
  <g
     id="g1"
     transform="translate(312.07083,126.8188)">
    <path
       style="fill:#000000"
       d="m -123.63842,82.737795 c -0.32938,-1.32 -4.94409,-26.12267 -10.25492,-55.11706 -5.31083,-28.9943805 -9.82833,-52.88933 -10.03889,-53.09989 -0.54654,-0.54654 -13.04648,26.8513595 -25.89159,56.75029 -6.04902,14.08 -11.8492,26.16649 -12.88928,26.85887 -1.04009,0.69238 -6.93106,2.25067 -13.09106,3.46287 -6.16001,1.2122 -12.44457,2.48725 -13.9657,2.83343 -2.38291,0.54232 -2.96396,0.13686 -4.19825,-2.92954 -2.38702,-5.93016 -36.154,-82.37437 -37.14531,-84.0923 -0.50779,-0.88 -1.35094,-1.6 -1.87366,-1.6 -1.70573,0 -14.19182,55.24679 -19.76797,87.46667 -1.31991,7.62666 -2.90593,14.21931 -3.52448,14.65033 -1.58162,1.1021 -35.7913,1.01529 -35.7913,-0.0908 0,-0.49893 1.88414,-9.01893 4.18697,-18.93333 6.48669,-27.92716 17.45525,-78.9687 24.03137,-111.828588 3.28034,-16.391322 6.07316,-29.893578 6.20629,-30.005012 2.82539,-2.365097 26.22724,-11.533373 31.54355,-12.358 2.17027,-0.336636 3.84762,2.987315 19.73019,39.098752 23.51662,53.4686375 28.56339,64.5333275 29.43463,64.5333275 0.40869,0 7.39821,-15.24 15.53225,-33.8666595 8.13405,-18.626669 17.87128,-40.682882 21.6383,-49.013811 l 6.84912,-15.147142 5.49033,-1.095734 c 6.09214,-1.215839 22.32117,-3.276647 25.80387,-3.276647 2.02752,0 2.47798,1.318674 4.82798,14.133333 l 2.59182,14.133333 4.76838,0.339483 c 10.61749,0.755908 18.61144,-3.968421 17.97457,-10.622768 -0.49899,-5.213741 -5.45164,-7.54718 -15.00962,-7.07177 -6.64189,0.330364 -7.20091,0.190055 -7.21174,-1.810077 -0.006,-1.19251 -0.30311,-3.930294 -0.65923,-6.083964 l -0.64749,-3.915763 5.19256,-0.762953 c 12.46988,-1.832224 17.99671,-7.355325 14.29035,-14.280705 -1.52389,-2.84741 -8.84699,-5.39148 -15.51937,-5.39148 h -5.84508 v -4.17945 c 0,-7.47905 0.303,-7.70205 9.46011,-6.96243 14.93309,1.20613 23.30336,5.35911 25.75141,12.77677 l 1.22059,3.69842 h 8.79034 c 11.40182,0 18.70939,2.20485 23.99792,7.24069 8.96709,8.53863 7.84616,22.951693 -2.49086,32.027714 -3.57469,3.138619 -4.80064,5.433839 -2.99618,5.609455 0.44,0.04282 5.12,0.173655 10.4,0.29074 5.28,0.117085 10.2,0.590377 10.93334,1.05176 0.77358,0.486703 1.33333,3.051466 1.33333,6.109259 v 5.270382 l -18.93333,0.06359 c -10.41334,0.03497 -21.21334,0.438875 -24,0.897562 l -5.06667,0.833977 0.008,-6.497562 0.008,-6.497562 4.52512,-2.568775 c 11.1235,-6.314484 17.85845,-14.300896 17.85845,-21.176848 0,-7.75906 -4.49848,-10.405578 -17.6,-10.354331 -7.70252,0.03013 -8.82143,0.303985 -11.49237,2.812805 l -2.95904,2.779428 3.70177,2.184097 c 11.39667,6.724202 9.83765,24.122377 -2.82648,31.542529 -5.11936,2.999533 -15.4788,5.981095 -20.78132,5.981095 -2.10734,0 -3.50094,0.532648 -3.48847,1.333333 0.0114,0.733334 5.50652,28.693332 12.21134,62.133332 6.80515,33.94039 11.78542,61.20604 11.27345,61.71912 -0.68379,0.68529 -33.55268,12.41421 -34.7893,12.41421 -0.12007,0 -0.4878,-1.08 -0.81717,-2.4 z"
       id="path1" />
  </g>
</svg>
